<svg width="33" height="40" viewBox="0 0 33 40" fill="none" xmlns="http://www.w3.org/2000/svg">
<path d="M17.7801 33.3711C21.9271 33.3711 25.2889 30.0612 25.2889 25.9781C25.2889 21.8951 21.9271 18.5851 17.7801 18.5851C13.6331 18.5851 10.2712 21.8951 10.2712 25.9781C10.2712 30.0612 13.6331 33.3711 17.7801 33.3711Z" stroke="white" stroke-width="1.07556" stroke-miterlimit="10" stroke-linecap="round" stroke-linejoin="round"/>
<path d="M17.1442 29.8087C17.6467 29.8087 18.054 29.4076 18.054 28.9129C18.054 28.4181 17.6467 28.0171 17.1442 28.0171C16.6417 28.0171 16.2344 28.4181 16.2344 28.9129C16.2344 29.4076 16.6417 29.8087 17.1442 29.8087Z" fill="white"/>
<path d="M20.4528 28.3159C20.9553 28.3159 21.3626 27.9148 21.3626 27.4201C21.3626 26.9254 20.9553 26.5243 20.4528 26.5243C19.9503 26.5243 19.543 26.9254 19.543 27.4201C19.543 27.9148 19.9503 28.3159 20.4528 28.3159Z" fill="white"/>
<path d="M19.9355 31.5048C20.4379 31.5048 20.8453 31.1038 20.8453 30.609C20.8453 30.1143 20.4379 29.7133 19.9355 29.7133C19.433 29.7133 19.0256 30.1143 19.0256 30.609C19.0256 31.1038 19.433 31.5048 19.9355 31.5048Z" fill="white"/>
<path d="M0.782227 2.80996C6.99454 -1.36669 18.0219 -0.219638 22.3256 9.71875C25.2907 16.5669 21.9545 24.4769 13.6346 27.9036C2.36916 32.5433 -0.0894624 20.0133 10.2701 13.6441C12.4647 12.3459 15.0343 11.5994 17.7809 11.5994C25.8466 11.5994 32.385 18.0369 32.385 25.9782C32.385 31.7486 28.9329 36.7248 23.9512 39.0145" stroke="white" stroke-width="1.07556" stroke-miterlimit="10" stroke-linecap="square" stroke-linejoin="round"/>
</svg>
