<svg width="72" height="40" viewBox="0 0 72 40" fill="none" xmlns="http://www.w3.org/2000/svg">
<mask id="mask0_2072_1745" style="mask-type:alpha" maskUnits="userSpaceOnUse" x="0" y="0" width="72" height="40">
<path d="M53.5995 23.0143C53.5938 22.7904 53.6631 22.5603 53.5895 22.3999C53.4716 22.2347 53.3109 22.3241 53.2294 22.2203C53.1922 22.0237 53.263 21.8182 53.208 21.64C53.0172 21.4973 52.9429 21.7404 52.7971 21.7165C52.7014 21.5649 52.8178 21.3881 52.735 21.2372C52.5913 21.231 52.5027 21.3375 52.3884 21.3881C52.3413 21.3116 52.3734 21.2338 52.3656 21.1593C52.3584 21.0883 52.3906 21.0003 52.2791 20.973C52.1505 20.9805 52.114 21.1314 51.9626 21.1491C51.9661 20.9969 51.9697 20.8473 51.974 20.663C51.7989 20.7572 51.6596 20.8323 51.5131 20.9115C51.466 20.7238 51.5482 20.5346 51.4638 20.3346C51.3352 20.4425 51.2373 20.5251 51.0894 20.6493C51.0959 20.366 51.1016 20.1332 51.108 19.8505C50.953 19.9721 50.8479 20.0547 50.6972 20.1728C50.7072 19.7352 50.7165 19.3569 50.7257 18.9459C50.5257 19.0715 50.475 19.2893 50.2435 19.3658C50.2592 18.6838 50.2749 18.0133 50.2906 17.3217C49.9748 17.1974 49.6704 17.263 49.4025 17.2445C49.1588 17.3647 49.1188 17.6426 48.8759 17.7218C48.8094 17.5934 48.9466 17.3988 48.723 17.3265C48.2828 17.7982 47.8398 18.2666 47.4033 18.7411C46.9631 19.219 46.5287 19.7031 46.0893 20.1871C46.2415 20.2807 46.4072 20.1878 46.548 20.3087C46.3501 20.562 46.0507 20.7333 45.9206 21.0317C46.0171 21.1156 46.1607 21.0317 46.2665 21.1245C46.2322 21.3922 45.9414 21.498 45.8199 21.7165C45.9435 21.7909 46.1457 21.7185 46.1707 21.9336C46.0428 22.0728 45.9078 22.2162 45.6941 22.3603C45.6999 22.1049 45.7049 21.9049 45.7084 21.7315C45.5927 21.6093 45.4476 21.6926 45.3205 21.5854C45.3247 21.3881 45.3305 21.1634 45.3347 20.9798C45.1983 20.8064 45.0289 20.8084 44.8567 20.7681C44.8632 20.5046 44.8689 20.254 44.8739 20.0192C44.7296 19.9291 44.5674 19.9277 44.4802 19.7884C44.4959 19.1221 44.5052 18.4475 44.5302 17.773C44.5402 17.5054 44.4816 17.2527 44.4259 16.9872C44.1201 16.9885 43.8321 16.9162 43.5528 17.0145C43.5306 17.0636 43.502 17.0978 43.5013 17.1319C43.4813 17.8945 43.4642 18.6578 43.4463 19.4218C43.5742 19.5187 43.6971 19.6123 43.8528 19.7304C43.8464 20.0069 43.8393 20.308 43.8328 20.6009C44.0058 20.6671 44.1815 20.6534 44.2773 20.7961C44.3023 21.0214 44.2387 21.2501 44.2958 21.4502C44.4266 21.5321 44.5688 21.4516 44.6588 21.5546C44.6931 21.8557 44.6202 22.1602 44.6724 22.4408C44.7931 22.5378 44.9368 22.4559 45.0539 22.5692C45.0482 22.8129 45.0318 23.0785 45.0389 23.3434C45.0461 23.6049 44.9625 23.8732 45.0675 24.1074C45.2076 24.2248 45.3369 24.1647 45.4605 24.1497C45.5034 24.2023 45.4784 24.2822 45.567 24.3265C45.8106 24.332 46.0743 24.3375 46.3358 24.3429C46.4901 24.2146 46.6373 24.0931 46.7538 23.9442C46.5759 23.7947 46.4122 24.0248 46.2036 23.908C46.5158 23.5742 46.8052 23.2649 47.1025 22.9467C46.9538 22.8928 46.8202 22.8443 46.6823 22.7938C46.8317 22.5719 47.1167 22.4538 47.1925 22.1971C47.1653 22.0346 46.9696 22.1118 46.9138 21.9786C47.0903 21.7731 47.2696 21.5642 47.4504 21.3526C47.3147 21.2631 47.126 21.3689 47.0353 21.1928C47.7598 20.4602 48.415 19.6601 49.2146 18.8722C49.2017 19.43 49.1903 19.8997 49.181 20.3687C49.181 20.3797 49.1917 20.3926 49.201 20.4008C49.241 20.435 49.2181 20.3605 49.2346 20.4193C49.341 20.338 49.4453 20.2581 49.5968 20.1421C49.5861 20.607 49.5768 21.0064 49.5668 21.4454C49.7069 21.2809 49.8147 21.1539 49.9734 20.9668C49.9641 21.3744 49.9562 21.7021 49.9484 22.0558C50.2006 21.9226 50.1913 21.6304 50.4407 21.4693C50.4328 21.797 50.4264 22.0728 50.4199 22.3685C50.6071 22.2319 50.6093 21.9977 50.8322 21.8591C50.8258 22.1329 50.8208 22.3575 50.8151 22.6006C51.0015 22.4675 51.0044 22.2333 51.2309 22.092C51.2252 22.3439 51.2202 22.5405 51.2152 22.7542C51.4345 22.6013 51.4838 22.3596 51.6646 22.1944C51.7239 22.4163 51.6368 22.6286 51.7132 22.8512C51.8361 22.6969 51.9376 22.5685 52.094 22.3726C52.0869 22.6832 52.0812 22.9147 52.0755 23.1843C52.267 23.084 52.2812 22.8867 52.4884 22.8286C52.4799 23.1973 52.4713 23.5557 52.462 23.9702C52.6442 23.8193 52.7735 23.7128 52.9257 23.5871C52.9572 24.0521 52.8807 24.4931 52.9322 24.9103C53.0565 25.0024 53.2001 24.9205 53.2994 25.0243C53.3109 25.1267 53.2873 25.2523 53.4187 25.3179L53.9482 25.3288C53.9561 25.0018 53.9696 24.4201 53.9768 24.0992C53.8432 23.9531 53.7124 23.8111 53.5874 23.6752C53.5924 23.4472 53.6052 23.2308 53.5995 23.0143Z" fill="#14152D"/>
<path d="M61.2668 25.2667C61.0761 25.1581 61.0232 24.9287 60.8688 24.7689C60.8138 24.8461 60.7588 24.9232 60.7045 24.999C60.5502 24.8352 60.5016 24.6024 60.2901 24.5006C60.2679 24.5047 60.2508 24.5027 60.2437 24.5102C60.2094 24.543 60.1779 24.5785 60.1329 24.6256C59.9843 24.4064 59.8414 24.1954 59.7006 23.9879C59.6006 23.9817 59.5584 24.1087 59.4284 24.0712C59.2469 23.7872 59.0561 23.4874 58.8675 23.1911C58.7553 23.2212 58.7632 23.3529 58.636 23.3577C58.3645 22.9085 58.0887 22.4511 57.8415 22.0428C57.6993 21.9486 57.6178 22.0687 57.5049 22.0059C57.3049 21.6734 56.9998 21.3969 56.6839 21.1368C56.714 21.0849 56.7304 21.0501 56.7525 21.0187C57.2863 20.2349 57.8243 19.4539 58.353 18.6667C58.4552 18.5151 58.6017 18.371 58.571 18.1369C58.2852 18.1307 58.0094 18.1253 57.7464 18.1191C57.6693 18.0522 57.6121 18.003 57.5592 17.9573C57.4356 17.9546 57.317 17.9518 57.1541 17.9484C56.6604 18.6714 56.1774 19.3788 55.6943 20.0861C55.8637 20.1987 56.0266 20.1045 56.2159 20.0629C56.0144 20.3619 55.8372 20.6241 55.6736 20.8664C55.4443 20.8617 55.2478 20.8576 55.0449 20.8528C54.9791 20.6056 55.0713 20.3612 55.0027 20.1236C54.8762 20.1632 54.7626 20.2021 54.6247 20.1079C54.634 19.6935 54.644 19.2647 54.6547 18.8169C54.4439 18.8776 54.3704 19.0681 54.1774 19.1398C54.1832 18.9063 54.1974 18.6906 54.1903 18.4755C54.1832 18.2529 54.2575 18.0235 54.1503 17.7935C53.9967 17.79 53.8516 17.7873 53.7166 17.7846C53.668 17.719 53.6301 17.6678 53.6101 17.6405C52.9428 17.6043 52.9428 17.6043 52.7013 17.7108C52.6891 18.2188 52.6777 18.7363 52.6655 19.2552C52.8942 19.2142 52.9463 19.0012 53.1342 18.8237C53.1257 19.1931 53.1185 19.5023 53.1114 19.8137C53.2779 19.7939 53.3765 19.7106 53.4944 19.6443C53.5522 19.8765 53.4451 20.0977 53.5208 20.2383C53.6716 20.3776 53.7866 20.2663 53.8881 20.2936C53.9295 20.5066 53.8473 20.7121 53.9188 20.8876C54.0674 20.9811 54.2382 20.8828 54.3639 21.0125C54.3582 21.2454 54.3532 21.4857 54.3489 21.6577C54.4104 21.9069 54.6347 21.9206 54.7419 22.096C54.7326 22.4975 54.7226 22.9283 54.7126 23.3461C54.8512 23.4977 54.9727 23.6308 55.1063 23.7762C55.0992 24.0862 55.092 24.4023 55.0856 24.6768C55.1892 24.8509 55.3592 24.8365 55.4778 24.9116C55.5836 24.9847 55.5129 25.2748 55.6829 25.3588C55.8294 25.393 56.0259 25.3786 56.2052 25.3766C56.1216 25.0775 56.2781 24.6529 56.1859 24.373C56.0866 24.2651 55.9116 24.263 55.8258 24.1101C55.7937 23.764 55.8665 23.396 55.813 23.0259C55.6508 22.9126 55.47 22.8218 55.3785 22.6313C55.395 22.4408 55.3571 22.238 55.4185 22.0537C56.1931 21.926 56.7232 22.2223 57.0855 22.8423C57.2463 23.1174 57.4192 23.3864 57.5635 23.6192C57.7164 23.7298 57.8715 23.6479 57.9979 23.7517C58.2094 24.1217 58.4488 24.4972 58.7003 24.8297C58.8153 24.8713 58.8725 24.7512 58.9697 24.8208C59.0376 24.9458 59.1412 25.0584 59.2912 25.1697C59.4563 25.1731 59.6399 25.1772 59.8214 25.1806C59.8242 25.2373 59.8257 25.2721 59.8278 25.322C60.0514 25.3267 60.2765 25.3315 60.4466 25.3349C60.5788 25.3759 60.5852 25.4831 60.7309 25.4967C60.8724 25.4967 61.0675 25.5254 61.2518 25.4803C61.3354 25.5281 61.2104 25.595 61.2861 25.6531C61.4305 25.662 61.5955 25.7159 61.6991 25.5165C61.6184 25.3964 61.5341 25.2721 61.454 25.1533C61.3669 25.1758 61.3704 25.2762 61.2668 25.2667Z" fill="#14152D"/>
<path d="M23.88 21.1532C23.7299 20.8023 23.3912 20.5913 23.1054 20.3407C23.1254 20.2882 23.1347 20.2513 23.1526 20.2185C23.3298 19.8949 23.5313 19.5863 23.7485 19.2852C23.9828 18.9596 24.0214 18.6271 23.8278 18.2509C23.6806 17.9655 23.4448 17.7702 23.2526 17.5525C22.5603 17.3381 20.6368 17.2391 20.2631 17.3941C20.2031 17.6945 20.0745 23.0676 20.1195 23.4055C20.2152 23.5578 20.4196 23.5448 20.5346 23.6377C20.5703 23.781 20.5096 23.9135 20.5853 24.0302C20.829 24.1347 21.2491 24.1613 21.795 24.1053C21.7343 24.0753 21.6807 24.048 21.5728 23.994C22.188 23.9722 22.7567 24.061 23.3155 23.9039C23.234 23.8473 23.1569 23.7933 23.0676 23.7312C23.6485 23.4888 24.2029 23.2485 24.4108 22.6177C24.6066 22.0223 24.5287 21.4857 24.1215 20.9921C24.0214 21.0501 24.0286 21.1839 23.88 21.1532ZM21.3463 18.3437C21.7336 18.3519 22.1008 18.3594 22.4681 18.3676C22.9311 18.7602 22.9661 19.3829 22.5324 19.7113C22.3573 19.8437 22.158 19.9468 21.9179 19.9407C21.7014 19.9352 21.5049 20.0021 21.3049 20.1264C21.3184 19.5385 21.3313 18.963 21.3463 18.3437ZM23.2776 22.2886C22.8053 22.9631 22.1115 22.8341 21.4256 22.8327C20.9955 22.7706 20.8611 22.3869 20.8469 22.3179C20.8569 21.8803 20.8676 21.427 20.879 20.9436C21.5399 20.8972 22.1823 20.9477 22.7746 21.0938C22.8968 21.2406 22.9082 21.3703 22.9525 21.4857C23.084 21.6345 23.3727 21.6291 23.3805 21.9288C23.3491 22.0387 23.3076 22.1828 23.2776 22.2886Z" fill="#14152D"/>
<path d="M36.8214 23.4219C36.7599 23.1263 36.8836 22.8327 36.7535 22.5269C36.3484 22.7105 35.9783 22.9208 35.556 23.0075C35.626 23.2171 35.8296 23.1052 35.9518 23.1782C34.6378 23.564 33.5039 23.1891 32.385 22.4531C32.3442 22.4491 32.2399 22.4381 32.1463 22.4286C31.7884 22.1609 31.6119 21.7902 31.4347 21.4195C31.2389 21.3068 31.0738 21.1648 30.9367 20.9812C30.9431 20.7163 30.9488 20.45 30.9545 20.2015C30.8523 20.0021 30.623 19.9072 30.6051 19.6833C30.6816 19.4696 30.7587 19.2566 30.8302 19.0579C30.7587 18.9173 30.618 18.8333 30.6359 18.6763C30.773 18.509 30.9788 18.3998 31.0817 18.2257C31.051 18.113 30.9374 18.0734 30.9445 17.9717C30.9652 17.9553 30.9831 17.9348 31.0053 17.9239C31.8548 17.5054 32.7258 17.5771 33.5789 17.8802C34.1084 18.0686 34.6428 18.2502 35.1559 18.4878C35.3902 18.5964 35.6453 18.7043 35.9411 18.7862C35.969 18.4155 35.9826 18.0782 35.964 17.7655C35.8554 17.6126 35.7325 17.616 35.6067 17.6665C35.4838 17.5081 35.3052 17.4549 35.1344 17.39C34.7915 17.2596 34.4413 17.1456 34.0984 17.0131C33.709 16.8636 33.2953 16.7735 32.893 16.6547C32.4271 16.5168 31.9456 16.5646 31.4704 16.5461C31.2703 16.5386 31.0724 16.5448 30.8845 16.6185C30.8652 16.626 30.8531 16.6492 30.8352 16.667C30.8609 16.7161 30.8888 16.7701 30.9252 16.8397C30.6709 16.9817 30.3365 16.9947 30.1593 17.2514C30.2314 17.3463 30.29 17.4241 30.3972 17.5655C30.2279 17.6959 30.0664 17.8201 29.9113 17.9389C29.9599 18.0584 30.1035 18.1014 30.1057 18.2134C30.0328 18.4257 29.8335 18.5486 29.7927 18.7637C29.8799 18.8975 30.0349 18.9965 30.0621 19.1883C29.9313 19.3412 29.9363 19.5549 29.8749 19.7017C29.8763 19.9694 30.0971 20.069 30.2286 20.2664C30.2271 20.3271 30.2322 20.4166 30.2221 20.5033C30.1879 20.7968 30.2379 21.0856 30.2922 21.3703C30.3193 21.5137 30.3322 21.6776 30.4558 21.7902C30.803 22.1063 31.0967 22.4634 31.3604 22.8444C31.419 22.9283 31.4804 23.0109 31.5483 23.0881C31.7476 23.3113 32.0084 23.4656 32.2514 23.6384C32.4829 23.5756 32.5993 23.7647 32.7637 23.8507C32.8566 23.8992 32.9452 23.9579 33.043 23.992C33.5368 24.1607 34.0205 24.3443 34.5464 24.4372C35.1659 24.5471 35.7482 24.4542 36.3612 24.3559C36.2862 24.289 36.2298 24.2392 36.1648 24.1811C36.5284 24.0405 36.9264 23.9886 37.2079 23.7046C37.0872 23.5537 36.8857 23.5592 36.8214 23.4219Z" fill="#14152D"/>
<path d="M28.5686 22.9836C28.2492 22.9713 27.9291 22.9747 27.6105 22.9603C27.2968 22.946 26.9788 22.9829 26.673 22.9085C26.6237 21.997 26.698 21.2637 26.698 21.2637L27.1439 21.2706C27.1439 21.2706 28.3521 21.2965 28.9195 21.3081C29.0045 21.2678 28.9309 21.1955 29.0274 21.1634C29.1224 21.1361 29.2631 21.2057 29.4018 21.1135C29.4339 20.8364 29.4496 20.5496 29.4168 20.2868C29.3053 20.1331 29.1617 20.168 29.0331 20.1652C28.3671 20.1482 27.7019 20.1372 27.036 20.1202C26.9345 20.1174 26.8209 20.1509 26.7388 20.0656C26.6888 19.9413 26.7645 19.8075 26.688 19.6839C26.5487 19.7358 26.4108 19.7877 26.2508 19.8471C26.2586 19.5057 26.27 19.2012 26.2715 18.8967C26.2729 18.5977 26.3122 18.298 26.2608 17.9791C26.3951 17.9818 26.5266 17.9846 26.658 17.9873C27.2839 18.0003 27.9091 18.0146 28.5351 18.0255C28.6201 18.0269 28.7308 18.0576 28.753 17.9088C28.6387 17.8378 28.5186 17.7634 28.4164 17.6992C28.3 17.4548 28.48 17.1933 28.2907 16.9612C28.0385 16.9557 27.7755 16.9502 27.489 16.9441C27.4504 16.9762 27.3925 17.0247 27.3325 17.0752C26.9838 17.0677 26.638 17.0602 26.3172 17.0533C26.2172 17.0881 26.2043 17.1953 26.0971 17.1912C25.8328 17.2028 25.5555 17.1612 25.2905 17.1967C25.2126 17.7142 25.1768 20.0341 25.2311 20.2724C25.3462 20.4178 25.4548 20.2028 25.587 20.3113C25.5798 20.6035 25.5734 20.9074 25.5663 21.2112C25.5591 21.5041 25.5527 21.7963 25.5455 22.0892C25.5384 22.3944 25.5248 22.6995 25.5262 23.0054C25.527 23.3044 25.4727 23.6062 25.5427 23.9141C26.8367 23.9414 28.1013 23.9687 29.3653 23.9954C29.4361 23.9967 29.4939 23.9708 29.5668 23.8902C29.5847 23.626 29.6504 23.3304 29.5489 23.0341C29.2053 22.9699 28.8852 22.9965 28.5686 22.9836Z" fill="#14152D"/>
<path d="M43.5743 23.7987C43.585 23.3338 43.5957 22.8695 43.6057 22.4339C43.4685 22.3356 43.3249 22.4169 43.2334 22.3151C43.1941 22.0421 43.2706 21.7628 43.2163 21.5013C43.0977 21.4119 42.9555 21.4877 42.859 21.3969C42.789 21.1047 42.9283 20.794 42.8154 20.5359C42.6947 20.4001 42.5146 20.495 42.4611 20.4069C42.3589 20.2594 42.396 20.142 42.3975 20.0307C42.406 19.5091 42.4189 18.9875 42.4325 18.4659C42.4432 18.0651 42.4103 17.6589 42.6011 17.2602C42.3639 17.2554 42.1552 17.2506 41.9295 17.2458C41.8551 17.4234 41.793 17.5927 41.7923 17.79C41.788 18.4393 41.768 19.0879 41.7494 19.7365C41.7465 19.8334 41.7808 19.9406 41.6844 20.0416C41.3657 20.0348 41.0349 20.028 40.7598 20.0218C40.6248 20.0587 40.6169 20.1693 40.5211 20.1789C39.9838 20.1017 39.4494 20.2164 38.8963 20.2267C38.9071 19.7713 38.9164 19.3569 38.9264 18.9431C39.0178 18.8899 39.1014 18.851 39.1729 18.797C39.2557 18.7342 39.3372 18.6659 39.3794 18.5683C39.4294 17.7456 39.4294 17.7456 39.2579 17.5695C39.1421 17.5326 39.0564 17.6248 38.9464 17.6227C38.8242 17.62 38.7141 17.5872 38.5991 17.5538C38.4941 17.523 38.3862 17.5374 38.2783 17.6999C38.2697 18.0788 38.259 18.5185 38.2483 18.9855C38.1011 18.9288 37.9968 18.8885 37.8703 18.84C37.8432 20.0041 37.8167 21.1449 37.7903 22.2824C37.886 22.4135 38.0882 22.4087 38.1861 22.6183C38.1754 23.0675 38.164 23.5721 38.1518 24.093C38.3798 24.1155 38.5369 24.2329 38.6741 24.3354C38.9657 24.3415 39.1457 24.2439 39.2557 24.0493C39.26 23.7332 39.3029 23.3461 39.2607 22.9835C39.1086 22.8572 38.9128 22.8893 38.8342 22.7541C38.8463 22.2462 38.8578 21.7526 38.8699 21.2317C39.065 21.2446 39.24 21.2166 39.3601 21.0555C40.146 21.1968 40.9206 20.9906 41.6679 21.05C41.753 21.1948 41.6651 21.3259 41.7523 21.4037C41.8702 21.4788 42.0123 21.3989 42.1302 21.5368C42.1245 21.7799 42.1181 22.0557 42.1124 22.3083C42.2388 22.408 42.3817 22.3261 42.4982 22.4394C42.4939 22.6196 42.4789 22.8224 42.4875 23.0238C42.4968 23.2314 42.4039 23.4539 42.5432 23.6239C42.6718 23.7141 42.8104 23.6362 42.9105 23.7195C42.9876 23.8957 42.8619 24.0991 42.9834 24.2671C43.3085 24.2739 43.6236 24.2807 43.9501 24.2876C43.9808 24.1735 44.1166 24.0923 43.9923 23.9735C43.8915 23.8581 43.6822 23.9687 43.5743 23.7987Z" fill="#14152D"/>
<path d="M18.4111 18.3567C18.3261 18.2707 18.3353 18.1867 18.3182 18.0795C17.603 17.6214 16.8241 17.4453 15.9753 17.6187C15.8288 17.7853 15.6623 17.874 15.4723 17.9464C15.1779 18.0577 14.9014 18.2017 14.6377 18.3799C13.9797 18.8258 13.5838 19.4286 13.3495 20.1516C13.2244 20.5374 13.2516 20.9306 13.2466 21.3218C13.2394 21.8776 13.3895 22.4053 13.7074 22.8669C14.209 23.5953 14.8664 24.1388 15.7852 24.3552C15.9632 24.3969 16.1582 24.3627 16.2925 24.4754C16.3883 24.4474 16.3004 24.3702 16.4012 24.3395C16.7763 24.3539 17.1821 24.3375 17.5951 24.1716C17.5079 24.1149 17.4236 24.0937 17.3829 24.0016C17.6751 23.8725 18.0038 23.8008 18.2489 23.5462C18.2046 23.4233 18.0388 23.437 18.0488 23.2943C18.3475 23.0259 18.6755 22.7638 18.8312 22.3739C18.7269 22.2128 18.6769 22.0455 18.6412 21.8803C18.7226 21.5956 18.8719 21.3294 18.8577 21.0337C18.8419 20.7033 18.9305 20.4124 19.1177 20.1387C19.2235 19.9837 19.2292 19.8191 19.167 19.6328C19.0106 19.1535 18.7705 18.7206 18.4111 18.3567ZM17.3064 22.5801C17.2879 22.6948 17.4486 22.731 17.4365 22.843C17.2078 23.0246 16.9256 23.1284 16.4633 23.2007C16.4083 23.2301 16.4848 23.2997 16.4183 23.3243C15.2136 23.3598 14.0797 22.4811 13.9118 21.2775C13.8825 21.0665 13.9125 20.8583 14.0111 20.65C14.2383 20.1694 14.5777 19.7447 14.7585 19.2422C14.8364 19.0251 15.0064 18.8975 15.2258 18.8046C15.5923 18.6496 15.9646 18.524 16.369 18.5342C16.5083 18.5377 16.6227 18.4646 16.7863 18.4578C17.115 18.5513 17.4108 18.6858 17.658 18.8572C17.7337 18.9705 17.663 19.0518 17.6587 19.135C18.3904 19.9045 18.5611 21.4693 17.3064 22.5801Z" fill="#14152D"/>
<path d="M12.2564 18.2407C11.3447 17.8331 10.3737 17.9758 9.41624 17.9096C9.36837 17.8659 9.31263 17.8154 9.25119 17.7601C8.99753 17.7935 8.72745 17.6713 8.48952 17.8215C8.41163 18.2619 8.40663 19.0716 8.4788 19.3222C8.62599 19.2587 8.61741 19.0429 8.82391 19.0177C8.80104 20.009 8.77818 20.9983 8.7546 22.0074C9.05398 22.1978 9.07756 22.5133 9.12472 22.8082C9.20689 23.3209 9.19974 23.8398 9.17759 24.358C9.17402 24.4434 9.14544 24.5369 9.2369 24.6277C9.46983 24.6898 9.63702 24.5369 9.82637 24.4372C9.83351 24.1286 9.84066 23.8364 9.84709 23.5442C9.85423 23.239 9.85423 22.9338 9.87067 22.6286C9.88567 22.3419 9.84352 22.0497 9.92569 21.7534C10.3272 21.7616 10.7109 21.7698 11.0903 21.778C11.1775 21.681 11.2547 21.595 11.3247 21.5172C11.6291 21.427 11.9127 21.3239 12.1528 21.1362C12.9538 20.5094 13.0145 19.3618 12.4343 18.5623C12.3586 18.4565 12.3014 18.3486 12.2564 18.2407ZM11.4662 20.7095C10.9696 20.8529 10.4601 20.7293 9.93283 20.7532C9.94712 20.1408 9.9607 19.5611 9.97427 18.976C10.0422 18.8961 10.1415 18.9296 10.2301 18.9303C10.5495 18.9337 10.8681 18.9398 11.1875 18.9501C11.4926 18.9596 11.7563 19.0504 11.9335 19.3283C11.8156 19.7844 11.5762 20.2077 11.4662 20.7095Z" fill="#14152D"/>
<path d="M43.3362 40C43.2612 40 43.1897 39.9918 43.124 39.9747L43.0797 39.9638L43.044 39.9365C42.9025 39.8273 42.9046 39.6866 42.9061 39.619C42.9061 39.6102 42.9068 39.6013 42.9061 39.5924C42.9061 39.589 42.9054 39.5856 42.9054 39.5822C42.8368 39.5876 42.766 39.6006 42.6917 39.6143C42.581 39.6347 42.4666 39.6559 42.343 39.6559C42.313 39.6559 42.283 39.6545 42.253 39.6518C42.1658 39.6436 42.0715 39.6402 41.9565 39.6402C41.8693 39.6402 41.7821 39.6422 41.6971 39.6443C41.6142 39.6463 41.5321 39.6484 41.4528 39.6484H41.387L41.3327 39.6129C41.1605 39.5016 41.1048 39.3535 41.0762 39.2258C40.4867 39.1452 39.9087 39.0469 39.3342 38.8312L39.3042 38.8196L39.2792 38.8004C39.147 38.7001 39.1063 38.5553 39.0763 38.4495C39.0763 38.4481 39.0756 38.4468 39.0749 38.4454C39.0098 38.4092 38.9334 38.3853 38.8484 38.3587C38.7833 38.3382 38.7162 38.3177 38.6483 38.2891C38.1067 38.0624 37.6401 37.7367 37.2085 37.4227C37.1893 37.4083 37.1528 37.3824 37.1257 37.3373C36.9913 37.1161 36.7941 36.9366 36.5855 36.7454C36.4512 36.6232 36.3125 36.4962 36.1882 36.3556C35.871 35.9958 35.5966 35.595 35.3737 35.1635C35.3673 35.1505 35.3601 35.1376 35.3537 35.1246L35.2929 35.1751L35.155 34.9956C35.0293 34.8324 34.9357 34.6603 34.8692 34.4705C34.6156 33.7489 34.3191 33.0245 34.0325 32.3247C33.8475 31.8727 33.6567 31.4058 33.4781 30.9422C33.4574 30.8882 33.4324 30.835 33.4052 30.7804L33.238 30.8759L31.5417 26.7468C31.5317 26.7925 31.5225 26.8376 31.5132 26.8826C31.4946 26.9714 31.476 27.0588 31.4553 27.1462C31.3624 27.5278 31.2752 27.9183 31.1916 28.2966C31.1438 28.5116 31.0959 28.726 31.0466 28.9411C30.8787 29.6757 30.7086 30.4096 30.5379 31.1443C30.4928 31.3368 30.4478 31.5293 30.4021 31.7219C30.3314 32.0202 30.2585 32.3288 30.1899 32.6326L30.187 32.6463C30.0756 33.1406 29.9605 33.6519 29.8626 34.1558C29.8076 34.4398 29.7362 34.6863 29.6419 34.9136C29.7526 34.9396 29.8762 34.9874 29.9677 35.1123L30.0227 35.1881L30.0005 35.2775C29.8412 35.9111 29.4854 36.4457 28.5729 37.3961C28.673 37.4261 28.7952 37.478 28.8752 37.6029L28.9581 37.732L28.8538 37.8453C28.1371 38.6236 26.4987 39.4606 24.5967 39.4606C24.0694 39.4606 23.5463 39.3971 23.0412 39.2708L22.9776 39.2551L22.6118 38.8585C20.7748 38.3478 19.3314 37.1728 18.3197 35.3663C18.2897 35.3636 18.2618 35.3581 18.2354 35.3485L18.1711 35.326L18.1325 35.2721C18.0324 35.1328 17.9703 34.9792 17.9103 34.831C17.8724 34.7382 17.8367 34.6508 17.7931 34.5689C17.7188 34.4296 17.6759 34.2842 17.638 34.1558C17.6216 34.0991 17.6052 34.0445 17.5873 33.994C17.578 33.9947 17.568 33.9954 17.558 33.9954C17.5094 33.9954 17.4616 33.9817 17.4215 33.9558L17.3651 33.9196L14.9522 28.0105L15.0444 27.7838C14.9943 27.6753 14.9508 27.5647 14.9086 27.4575C14.9022 27.4411 14.8957 27.4247 14.8893 27.4083L14.4699 29.2073L14.4077 29.2524L14.362 29.2859C14.3056 29.3275 14.2212 29.391 14.1334 29.4504C13.9454 29.5788 13.839 29.7631 13.7775 30.0676C13.586 31.0145 13.3538 31.9683 13.1295 32.8907L13.113 32.9583C13.0609 33.174 13.0151 33.3973 12.9716 33.613C12.913 33.9018 12.8522 34.2002 12.7729 34.4924C12.5428 35.3369 12.1999 36.0203 11.7254 36.5829C11.5883 36.7461 11.4411 36.8997 11.296 37.0451C11.2982 37.0465 11.3003 37.0479 11.3032 37.0492C11.4082 37.1086 11.5518 37.1899 11.6118 37.3735L11.6504 37.4916L11.559 37.579C11.0052 38.1095 10.3693 38.513 9.62621 38.8052L10.2107 39.1575L9.7984 39.2995C9.0303 39.5637 8.27864 39.6982 7.56341 39.6982C7.02467 39.6982 6.49092 39.6225 5.97647 39.4729L5.91288 39.4545L5.87144 39.4047C5.77927 39.2941 5.7707 39.1896 5.78499 39.1097C4.58746 38.8428 3.65359 38.3608 2.93479 37.6384L2.86692 37.5702C2.37747 37.0793 1.87088 36.5713 1.49862 35.9603C1.45289 35.8852 1.39145 35.8107 1.32643 35.7322C1.24711 35.6367 1.16566 35.537 1.09778 35.4209C0.894145 35.0707 0.72552 34.676 0.585475 34.2193C0.576901 34.22 0.568327 34.2207 0.559038 34.2207C0.501163 34.2207 0.446145 34.205 0.396129 34.1742L0.335396 34.1374L0.310388 34.0732C0.0367294 33.3713 -0.0568719 32.6408 0.0331567 31.9021C0.0888887 31.4433 0.197495 30.9879 0.301814 30.5476C0.34397 30.3721 0.386841 30.1898 0.426139 30.0123C0.459006 29.8635 0.495447 29.7194 0.53403 29.5671C0.551179 29.4996 0.568327 29.4306 0.58619 29.361L0.64478 29.1247L1.07134 29.2975L1.49505 27.4971L1.69011 27.523C1.72798 27.5278 1.76442 27.5347 1.79943 27.5415C1.8423 27.5497 1.87946 27.5565 1.9109 27.5579L2.31174 25.8497C2.35747 25.6544 2.40462 25.4598 2.45178 25.2646C2.55539 24.8365 2.66256 24.3941 2.75259 23.9578C2.80118 23.7216 2.85906 23.4854 2.91479 23.2566C2.99053 22.948 3.06198 22.6531 3.11414 22.3575C3.11271 22.3575 3.11199 22.3575 3.11056 22.3575C2.99696 22.3575 2.8955 22.3083 2.80904 22.2114L2.78546 22.1854L2.7726 22.1533C2.70758 21.9949 2.76474 21.8325 2.81547 21.6891C2.83476 21.6338 2.85334 21.5812 2.86406 21.5341C2.99624 20.9347 3.14343 20.3291 3.28633 19.7433C3.36136 19.4361 3.43567 19.1288 3.50926 18.8216C3.51784 18.7854 3.51641 18.7349 3.51498 18.6816C3.51426 18.6482 3.51355 18.6147 3.51426 18.5813L3.51641 18.5041L3.56357 18.455C3.65788 18.2542 3.69932 18.0344 3.74219 17.8023C3.76291 17.6896 3.78506 17.5736 3.81293 17.4575C3.96869 16.8253 4.11088 16.1774 4.2495 15.5513C4.3138 15.2598 4.37811 14.9683 4.44385 14.6767C4.45456 14.6289 4.47171 14.5859 4.48814 14.5497C4.30094 13.9544 4.28451 13.3338 4.43813 12.6565C4.55174 12.1533 4.67249 11.6433 4.78824 11.1497C4.87255 10.7933 4.95615 10.4363 5.03903 10.0799C5.13121 9.6798 5.22195 9.27903 5.31198 8.87895C5.49418 8.07059 5.6821 7.23425 5.88716 6.41497C5.93861 6.20946 5.98576 5.9985 6.03078 5.79436C6.11509 5.41476 6.20226 5.02492 6.3223 4.64122L5.72497 5.02287L5.87001 4.49853C6.30801 2.91869 7.26831 1.74643 8.80523 0.91418C9.53618 0.518195 10.8273 0.195944 11.6826 0.195944C11.9327 0.195944 12.1313 0.224619 12.2728 0.280604L12.4471 0.349559L12.3978 0.522974C12.3864 0.562573 12.3699 0.597392 12.3506 0.628115C12.4485 0.639039 12.5443 0.648598 12.6393 0.654742C13.7239 0.726429 14.7014 1.03366 15.5445 1.56892C15.5817 1.59213 15.6231 1.61467 15.6596 1.63378C15.6767 1.64334 15.6931 1.65153 15.7067 1.65972L15.7453 1.68089L15.7717 1.71503C15.836 1.799 15.8403 1.87957 15.8303 1.93896L15.8975 1.98471C16.0261 2.07141 16.1597 2.16154 16.2919 2.25234C17.15 2.83949 17.7867 3.64511 18.2382 4.71496C18.6248 5.6305 19.0056 6.56517 19.3743 7.46911L19.6608 8.17027C19.8823 8.71305 20.1024 9.2565 20.3225 9.79996C20.4725 10.1707 20.6226 10.5414 20.7733 10.9121C20.8105 11.0036 20.8491 11.0937 20.8876 11.1852L20.8934 11.1791L21.057 11.3143C21.2599 11.4815 21.3235 11.6918 21.3799 11.8768C21.4007 11.9444 21.42 12.0086 21.445 12.0646C21.4657 12.1124 21.4878 12.1595 21.5107 12.2073C21.5114 12.2086 21.5121 12.21 21.5128 12.2114C21.6014 11.8284 21.6893 11.444 21.7772 11.0603L21.9194 10.441C22.0209 9.99795 22.123 9.55486 22.2252 9.11244C22.2745 8.89807 22.3238 8.68369 22.3724 8.46931C22.4867 7.9675 22.6046 7.44862 22.7311 6.9393C22.8047 6.643 22.8697 6.3385 22.9326 6.04356C23.0633 5.42978 23.1991 4.79484 23.4206 4.18311C23.6121 3.65536 23.8929 3.16174 24.2744 2.68519C24.243 2.69885 24.2123 2.71387 24.1823 2.72889L24.0537 2.79579L23.9415 2.70567C23.845 2.62784 23.8207 2.54318 23.8179 2.48652C23.8107 2.36158 23.8922 2.27896 23.9272 2.24346L23.935 2.23527C24.6267 1.38458 25.5441 0.746228 26.6602 0.342733C27.3147 0.105824 28.0221 0 28.9545 0C29.146 0 29.3482 0.00409657 29.5926 0.0129721C29.7069 0.0170685 29.8076 0.0484741 29.8969 0.0757835C29.9277 0.0853418 29.957 0.0948993 29.9855 0.101727L30.0534 0.118795L30.0977 0.170683C30.192 0.281286 30.1949 0.397351 30.1963 0.46699C30.1963 0.470403 30.1963 0.473816 30.1963 0.47723C30.2199 0.487471 30.2471 0.494299 30.2799 0.49703C30.5907 0.522291 30.8758 0.610364 31.1523 0.696388C31.2059 0.712774 31.2595 0.729842 31.3131 0.745545C31.4003 0.771489 31.546 0.815866 31.6632 0.959922L31.6954 0.999522L31.7325 1.19137C32.0283 1.29924 32.3077 1.43237 32.5571 1.55185C32.6457 1.59418 32.7321 1.63583 32.8164 1.67406L32.8465 1.68772L32.8707 1.70956C32.9986 1.82495 33.0186 1.94647 33.0286 2.01475C33.1222 2.07824 33.2187 2.13764 33.3209 2.20045C33.4588 2.28579 33.601 2.37386 33.7374 2.47286C33.7603 2.48925 33.7832 2.50563 33.806 2.52134C33.9497 2.62102 34.1269 2.74391 34.1897 2.97535C34.5077 3.14672 34.7178 3.39319 34.9214 3.63078L34.9986 3.7209C35.4644 4.25957 35.946 4.81737 36.2404 5.48713C36.3819 5.81006 36.5155 6.14051 36.6448 6.46003C36.6898 6.57131 36.7348 6.68328 36.7806 6.79457C36.9185 7.13252 37.0556 7.46979 37.1935 7.80774C37.3957 8.30477 37.598 8.80112 37.8009 9.29747L37.9845 9.26606L38.0531 9.4108C38.146 9.60538 38.2239 9.80542 38.2996 9.99932C38.3553 10.1427 38.4125 10.2888 38.4754 10.4335L38.6154 10.2867L39.3299 12.0182L39.4864 11.9185L40.3817 14.0875L42.0108 7.02943L42.2894 7.32505C42.3223 7.35987 42.363 7.39605 42.4081 7.43224C42.5131 6.95979 42.6246 6.55766 42.8046 6.1644C42.9146 5.92476 43.039 5.65303 43.2798 5.35809L43.6935 4.8515L43.6627 5.49328C43.6577 5.59773 43.6463 5.69741 43.632 5.79368C43.93 5.3656 44.2908 4.96894 44.7116 4.60777C44.9946 4.36472 45.3233 4.19062 45.6362 4.03837L45.897 4.35311C45.8456 4.41114 45.7927 4.46917 45.7405 4.52721C45.7184 4.55178 45.6962 4.57636 45.6741 4.60094C47.0638 3.74821 48.1563 3.64102 48.6172 3.64102C48.7601 3.64102 48.8951 3.65058 49.0187 3.66969L49.0445 4.04451C49.1781 4.03632 49.3102 4.03291 49.4424 4.03291C50.1427 4.03291 50.8265 4.15034 51.4759 4.38247L52.1126 4.60982L51.7517 4.69926C51.8311 4.72452 51.9054 4.74978 51.9732 4.77436C52.0254 4.79279 52.0783 4.81122 52.1311 4.82897C52.4198 4.92865 52.7185 5.03106 52.98 5.2195L53.0872 5.29733L53.0607 5.42364C53.055 5.44958 53.0472 5.47211 53.0372 5.49259C53.1093 5.52741 53.1829 5.56223 53.2551 5.59364C53.5373 5.71448 53.7745 5.8838 54.0039 6.04697C54.0496 6.07974 54.0953 6.11251 54.1418 6.1446C54.1489 6.15006 54.1575 6.15484 54.1661 6.16031C54.334 6.26408 54.3797 6.37946 54.3719 6.48187C54.3754 6.4846 54.379 6.48733 54.3826 6.49007C55.1178 6.99324 55.6866 7.65891 56.121 8.52393C56.1767 8.63453 56.241 8.75469 56.3189 8.88988C56.4561 9.12883 56.5618 9.38622 56.6433 9.67707C56.7133 9.92831 56.8184 10.17 56.9298 10.4267C56.9784 10.538 57.0284 10.6534 57.0749 10.7688C57.1185 10.8766 57.1606 10.9845 57.2035 11.0931C57.2964 11.3286 57.3921 11.5723 57.4957 11.8065C57.5607 11.9519 57.5643 12.0967 57.5079 12.2455L58.0595 13.6035L57.9144 13.6991L58.3381 14.7491C58.4053 14.7204 58.4703 14.704 58.526 14.6904C58.5525 14.6836 58.5875 14.6754 58.6039 14.6692L58.6161 14.6597C58.7225 14.577 58.7397 14.4862 58.7604 14.3326C58.7683 14.2753 58.7761 14.2166 58.7918 14.1558C58.9483 13.5529 59.0876 12.933 59.2227 12.3343C59.2584 12.1759 59.2941 12.0168 59.3299 11.8584C59.4835 11.1818 59.6364 10.5045 59.7886 9.82795C59.8779 9.42992 59.9679 9.03257 60.058 8.63453C60.0608 8.62292 60.0637 8.61132 60.0672 8.60108C60.0458 8.55602 60.0101 8.50823 59.9708 8.45497C59.89 8.34574 59.7886 8.20919 59.7579 8.01871L59.7521 7.98525L59.7579 7.9518C59.8743 7.30866 60.0165 6.78569 60.2001 6.32143C60.1923 6.31665 60.1837 6.31187 60.1751 6.30709C60.0801 6.25384 59.9215 6.16577 59.8843 5.95753L59.8758 5.90838L59.8915 5.86127C60.1208 5.17171 60.6667 4.41319 61.4541 3.77483C61.432 3.78439 61.4098 3.79327 61.387 3.80283C61.3226 3.82945 61.2555 3.85744 61.1847 3.88953L60.7939 4.065L60.8839 3.6615C60.9332 3.44098 61.0826 3.35086 61.1719 3.2976C61.1876 3.28805 61.2033 3.27917 61.2176 3.26825C61.2591 3.23821 61.2998 3.20407 61.3427 3.16788C61.3941 3.12419 61.4477 3.07913 61.5084 3.0368C62.2472 2.52134 63.0868 2.17656 64.0028 2.01338C64.3786 1.94647 64.7587 1.91234 65.1331 1.91234C65.4089 1.91234 65.6876 1.93077 65.9627 1.96695C66.8651 2.08643 67.7104 2.37796 68.5464 2.85792C68.7522 2.97604 68.7922 3.02861 68.8636 3.23206C69.7032 3.80283 70.2669 4.33741 70.6871 4.95938C71.1351 5.62231 71.4159 6.31256 71.5416 7.06151L71.5873 7.04513L71.6574 7.06629C71.806 7.11067 71.9032 7.23903 71.9174 7.40903C71.9267 7.51826 71.9389 7.6275 71.9503 7.73605C71.9903 8.10063 72.0318 8.47682 71.9639 8.87622C71.8217 9.71189 71.6202 10.5462 71.4251 11.3525C71.3487 11.6679 71.2701 11.9943 71.1958 12.3151C71.0779 12.8258 70.965 13.3468 70.855 13.8506C70.7842 14.1763 70.7135 14.5019 70.6406 14.8276C70.622 14.9102 70.5942 14.9846 70.567 15.057C70.5563 15.0864 70.5449 15.115 70.5349 15.1444L70.4727 15.3274L70.2776 15.2796C70.1898 15.2577 70.1233 15.2161 70.0711 15.1738L67.8004 24.9642L67.5432 24.8119C67.4775 24.773 67.4274 24.7259 67.3853 24.6788L65.8912 31.1224L65.9405 31.0323L66.3328 31.2562L66.2656 31.5641C66.2392 31.6864 66.2128 31.8092 66.1849 31.9315C66.137 32.1424 66.0906 32.3541 66.0441 32.5657C65.9327 33.0716 65.8169 33.5946 65.6897 34.1073C65.6447 34.2896 65.6026 34.4774 65.5626 34.6583C65.4625 35.1062 65.3589 35.5697 65.1925 36.0169C64.8923 36.8226 64.4701 37.4821 63.902 38.0324C63.3726 38.5458 62.8374 38.9315 62.2658 39.2114C61.7692 39.4552 61.2348 39.632 60.6767 39.7371L60.1423 39.8382L60.4045 39.4914C60.4088 39.4176 60.4488 39.3473 60.5124 39.3057C60.5488 39.2818 60.5853 39.2579 60.6224 39.234C60.2244 39.333 59.8036 39.4169 59.3642 39.4169C59.327 39.4169 59.2899 39.4163 59.2527 39.4149C59.1427 39.4115 59.0283 39.4108 58.9183 39.4101C58.5189 39.4081 58.1059 39.406 57.7008 39.2674L57.5507 39.2162L57.5586 39.0647C57.5614 39.0018 57.5786 38.9493 57.6007 38.9063C57.5986 38.9063 57.5957 38.9063 57.5936 38.9063C57.5393 38.9035 57.4779 38.9008 57.4135 38.8878C56.4718 38.6939 55.6294 38.3314 54.9099 37.8105C54.5826 37.5729 54.2118 37.282 53.9482 36.9229C53.7138 36.6041 53.5187 36.232 53.3322 35.75C53.2572 35.5561 53.1786 35.3663 53.095 35.1662C53.0586 35.0782 53.0214 34.9894 52.985 34.9007L52.9314 34.7703L53.0514 34.6651L52.0854 32.3042L52.094 32.2503C52.1004 32.2086 52.1219 32.1315 52.1905 32.0776L51.6296 30.7162L51.5624 31.0036L50.7621 29.0701C50.5742 29.8607 50.3935 30.6452 50.2177 31.4085C50.0798 32.0079 49.9419 32.6053 49.8018 33.202L49.7704 33.3365L49.6282 33.359C49.6003 33.3638 49.5725 33.3659 49.5453 33.3659C49.4489 33.3659 49.3696 33.3392 49.301 33.3051L48.8551 35.2024L48.4664 35.0563C48.4657 35.0638 48.4643 35.0713 48.4636 35.0789C48.3414 35.8872 48.1399 36.5051 47.8641 36.9154L47.7712 37.0533L47.6104 36.9973C47.4911 36.9557 47.4075 36.8833 47.3396 36.8185C47.1053 37.1694 46.8395 37.5401 46.4851 37.8726L46.9309 37.9736L46.8538 38.1873C46.7594 38.4488 46.5501 38.6038 46.3815 38.7287L46.3243 38.7711C45.5362 39.3664 44.6152 39.7706 43.5863 39.9741C43.4955 39.9918 43.4134 40 43.3362 40ZM43.6092 38.6291C43.6177 38.7438 43.5856 38.838 43.5463 38.9158C44.2186 38.7615 44.801 38.5157 45.3097 38.1716C45.2111 38.1689 45.1011 38.1594 44.9867 38.1307L44.5545 38.0214L44.9146 37.7681C45.2804 37.5108 45.6084 37.2199 45.9163 36.8799C46.19 36.5781 46.3893 36.2231 46.6008 35.8476L46.7773 35.5336L47.0009 35.808C47.0338 35.849 47.0645 35.8858 47.0938 35.92C47.176 35.7049 47.2339 35.4919 47.2696 35.2755C47.3175 34.9846 47.3775 34.6467 47.479 34.321L47.5297 34.1572L47.7076 34.1756C47.8048 34.1858 47.8855 34.2131 47.9562 34.2466L48.4107 32.3541L48.64 32.4367C48.7022 32.4592 48.7515 32.4879 48.7929 32.5138L50.0569 27.0513L50.1284 27.0055C50.2849 26.9052 50.4549 26.8567 50.6471 26.8567C50.745 26.8567 50.8486 26.8683 50.9822 26.8956L51.0944 26.9181L51.7632 28.5192C51.7789 28.5164 51.796 28.5144 51.8146 28.5144H51.9618L52.0147 28.6455C52.2712 29.2824 52.5384 29.929 52.7964 30.5544C53.1343 31.3737 53.4844 32.2216 53.8167 33.0607L53.9003 33.2723L53.7217 33.3181C53.796 33.5079 53.876 33.6963 53.9546 33.88C54.1032 34.2282 54.2568 34.5887 54.3633 34.9512L54.3983 35.0707L54.304 35.156C54.2947 35.1642 54.2854 35.1724 54.2754 35.1785C54.2811 35.1936 54.2875 35.2093 54.294 35.225C54.3554 35.3806 54.419 35.5417 54.499 35.6865C54.5355 35.752 54.5705 35.8183 54.6062 35.8852C54.827 36.2996 55.0356 36.6915 55.4844 36.897C55.5379 36.9216 55.573 36.9564 55.5965 36.9789C55.6001 36.9823 55.6037 36.9864 55.6073 36.9898C56.4618 37.59 57.3342 37.9047 58.2717 37.9484C58.3488 37.9518 58.4046 37.9853 58.441 38.0071C58.4489 38.0119 58.4567 38.0167 58.466 38.0214L58.6425 38.1081L58.5253 38.3765C58.7111 38.401 58.899 38.4133 59.0855 38.4133C59.74 38.4133 60.4238 38.2638 61.1762 37.9566C62.0071 37.6173 62.7102 37.0472 63.3897 36.1617L63.7749 36.3132C63.767 36.3617 63.7584 36.4109 63.7477 36.4593C63.907 36.1897 64.0357 35.9002 64.1314 35.5943C64.3143 35.0099 64.4522 34.4016 64.5851 33.8138C64.628 33.624 64.6709 33.4342 64.7151 33.245C64.7423 33.131 64.7716 33.017 64.8009 32.903C64.8652 32.6538 64.9266 32.4148 64.9617 32.1759C64.8781 32.1738 64.7737 32.1588 64.6744 32.0823L64.5708 32.0025L66.555 23.4123L66.7879 23.499C66.8573 23.525 66.9101 23.5618 66.9509 23.6014C66.9702 23.5379 66.988 23.4751 67.0023 23.4123C67.1709 22.6777 67.3374 21.9431 67.5046 21.2078C67.6196 20.6991 67.7354 20.1912 67.8512 19.6825C67.929 19.3405 68.0091 18.9984 68.0884 18.6564C68.1612 18.3437 68.2341 18.0303 68.3056 17.7169C68.3592 17.4834 68.4113 17.2493 68.4635 17.0151C68.5364 16.6887 68.6114 16.3515 68.6893 16.0197C68.7836 15.6196 68.8836 15.214 68.9801 14.8221C69.0229 14.6487 69.0658 14.4753 69.108 14.3026L69.1416 14.164L69.2895 14.1462C69.3102 14.1435 69.3302 14.1428 69.3502 14.1428C69.4431 14.1428 69.5188 14.1688 69.5824 14.1995C69.6239 14.0261 69.6653 13.8527 69.7067 13.6799C69.8461 13.0982 69.9904 12.4974 70.1283 11.9082C70.2362 11.4453 70.3419 10.9743 70.4441 10.5182C70.5027 10.2588 70.5606 9.99932 70.6192 9.73988C70.6399 9.64771 70.6656 9.55622 70.6899 9.46747C70.7385 9.28996 70.7849 9.122 70.7964 8.95678C70.8199 8.61746 70.8114 8.26586 70.8021 7.92517C70.7999 7.84598 70.7978 7.76678 70.7964 7.6869C70.7935 7.68144 70.7892 7.67324 70.7842 7.66505C70.7814 7.66437 70.7778 7.66437 70.7749 7.66368C70.7063 7.65481 70.5784 7.63774 70.4827 7.51485L70.4491 7.47184L70.442 7.41858C70.3477 6.73107 70.1026 6.08862 69.7117 5.5083C69.5253 5.23111 69.2673 4.87813 68.9265 4.60231C68.4785 4.24046 67.9819 3.94757 67.4503 3.73114C66.863 3.49218 66.2128 3.37066 65.5168 3.37066C65.2961 3.37066 65.066 3.38295 64.833 3.40684C64.2779 3.46351 63.7013 3.64238 63.1204 3.93732C62.6888 4.15648 62.3072 4.41934 61.9864 4.71906C61.5734 5.1048 61.2791 5.48303 61.0861 5.87629C61.0611 5.92749 61.0318 5.97597 61.004 6.02308C60.949 6.11456 60.9111 6.18215 60.9018 6.24019C60.9154 6.24701 60.9304 6.25316 60.9461 6.25998C61.0433 6.303 61.1769 6.3624 61.2569 6.51942L61.2962 6.59725L61.2655 6.6785C61.0983 7.12091 60.9968 7.58108 60.8896 8.06855C60.8332 8.32457 60.7753 8.58879 60.706 8.85232C60.7575 8.93767 60.7903 9.02642 60.8203 9.10698C60.8482 9.18277 60.8746 9.25377 60.9118 9.3118C61.0211 9.48044 61.0025 9.65454 60.9697 9.80337C60.8503 10.3523 60.7196 10.9074 60.5938 11.4447L60.5653 11.5682C60.4216 12.182 60.2766 12.7958 60.1301 13.4144L59.9329 14.2493L59.8858 14.2923C59.845 14.3292 59.805 14.3681 59.7636 14.4077C59.6557 14.5122 59.5435 14.6201 59.4085 14.7136C59.3463 14.7566 59.322 14.7935 59.3063 14.8713C59.2834 14.9826 59.2606 15.0939 59.2384 15.2052C59.1605 15.5902 59.0805 15.9883 58.9769 16.3774C58.9697 16.4047 58.9647 16.4395 58.959 16.4764C58.9376 16.6212 58.9047 16.8403 58.6675 16.9775L58.6196 17.0048L58.5639 17.0069C58.5275 17.0083 58.491 17.0096 58.4539 17.0117C58.3831 17.0151 58.3103 17.0185 58.2324 17.0185C58.1252 17.0185 58.0273 17.0117 57.9337 16.9973L57.813 16.9789L57.0934 15.2215L57.1213 15.1485C57.1449 15.0877 57.1785 15.044 57.2113 15.0119L56.6755 13.6922L56.8291 13.5912L56.3611 12.4476L56.3768 12.3848C56.3961 12.3083 56.4375 12.253 56.4718 12.2148L55.7837 10.5278L55.9081 10.4369C55.3393 8.85779 54.4412 7.72718 53.1672 6.98505L53.1107 6.95228L53.0836 6.89493C53.0664 6.85806 53.0486 6.80276 53.0586 6.73722C52.637 6.45934 52.1883 6.26408 51.6603 6.12753C51.3766 6.05448 51.3859 5.84693 51.3952 5.7848L51.4059 5.71721C51.228 5.66328 51.0444 5.62436 50.8657 5.59022C50.5678 5.53356 50.2534 5.50556 49.9305 5.50556H49.889C49.6375 5.50761 49.3824 5.53424 49.1123 5.56291C49.0216 5.57247 48.9294 5.58203 48.8344 5.59159L48.2592 5.64689L48.6579 5.24681C48.7043 5.20038 48.7522 5.16215 48.8001 5.13006C48.4671 5.17239 48.1363 5.24749 47.8012 5.35536C47.1224 5.57452 46.5472 5.9548 45.9692 6.3583L45.4312 6.7338L45.6398 6.1289C45.6741 6.02854 45.7191 5.93432 45.7706 5.84625C45.2047 6.32006 44.7667 6.90448 44.4451 7.61248L44.035 7.51212C44.035 7.51212 44.0479 7.37694 44.0536 7.32164C43.9936 7.49642 43.9457 7.66846 43.905 7.833C43.7821 8.32594 43.6677 8.83048 43.5577 9.31863C43.5091 9.53301 43.4605 9.74671 43.4112 9.96108L42.9911 9.95562C42.989 9.9447 42.9868 9.93378 42.9847 9.92285L41.7986 15.057L41.5206 14.775C41.4806 14.7341 41.4478 14.6917 41.422 14.6481C41.4042 14.7293 41.3863 14.8099 41.3692 14.8897C41.277 15.3124 41.1898 15.7117 41.0583 16.1084L41.0205 16.2238L40.8969 16.2477C40.7747 16.2716 40.6668 16.2839 40.5839 16.2839C40.5346 16.2839 40.4939 16.2791 40.4596 16.2702L40.4367 16.2641L40.416 16.2532C40.2331 16.1596 40.1752 16.019 40.1373 15.9261C40.123 15.892 40.1145 15.8715 40.1066 15.8592C40.0666 15.8736 40.0123 15.8879 39.9494 15.8879C39.8608 15.8879 39.7751 15.8599 39.6951 15.8046L39.6479 15.7718L39.6243 15.7206C39.3135 15.0434 39.0377 14.3531 38.7455 13.6226C38.5883 13.23 38.4282 12.8292 38.2603 12.4271L38.1824 12.7002L37.38 10.7544L37.2207 10.7694L36.4112 8.80044L36.2475 8.87281L36.1639 8.6714C36.0525 8.40377 35.9346 8.13341 35.8203 7.87124C35.5595 7.2718 35.2901 6.65187 35.0736 6.02444C34.7828 5.18195 34.209 4.52721 33.601 3.83355C33.5424 3.76664 33.4845 3.70042 33.4259 3.63351C33.3966 3.60005 33.3845 3.59186 33.3816 3.58981C33.238 3.52017 33.1258 3.42186 33.0265 3.33447C32.9379 3.25664 32.8536 3.18222 32.7586 3.13853C32.6164 3.07298 32.5228 2.95009 32.5085 2.81013C32.5056 2.78555 32.4906 2.77053 32.3884 2.71182L32.3484 2.6886C32.1248 2.55752 31.889 2.44623 31.6618 2.33905C31.5946 2.30764 31.5296 2.27623 31.466 2.24619L31.431 2.22913L31.4046 2.20181C31.3067 2.10009 31.2902 1.98812 31.2802 1.92121C31.2788 1.9137 31.2781 1.90483 31.2767 1.89663L31.2009 1.86932C30.7651 1.71161 30.3142 1.54844 29.8398 1.52932L29.5997 1.51976L29.6369 1.2931C29.6411 1.26579 29.6461 1.24121 29.6504 1.218C29.6576 1.18113 29.6633 1.15177 29.664 1.12992C29.664 1.12515 29.664 1.12037 29.6647 1.11559C29.3703 1.07326 29.0795 1.05209 28.7994 1.05209C27.7648 1.05209 26.8031 1.34362 25.9328 1.91916C26.0271 1.93145 26.1193 1.95194 26.2108 1.98061L26.4694 2.06186L26.3265 2.28306C26.2736 2.36431 26.2001 2.40595 26.1515 2.43326C26.1407 2.43941 26.1293 2.44555 26.1193 2.45238C25.2476 3.05045 24.6588 3.87929 24.3702 4.91568C24.2037 5.51307 24.0644 6.11593 23.9243 6.73244C23.8071 7.24722 23.6807 7.80092 23.5456 8.36281C23.4056 8.94654 23.2763 9.54393 23.1512 10.1215C23.0712 10.4909 22.9883 10.8732 22.9033 11.2487C22.7189 12.0653 22.5203 12.9351 22.3024 13.7946C22.296 13.8192 22.2917 13.8513 22.2874 13.8848C22.2702 14.007 22.2452 14.192 22.0673 14.336L22.0252 14.3702L21.9708 14.3804C21.858 14.4016 21.7501 14.4125 21.6407 14.4125C21.5193 14.4125 21.3949 14.3989 21.2721 14.3722L21.1613 14.3483L20.4061 12.5002C20.3632 12.4968 20.3203 12.4858 20.2796 12.466L20.2046 12.4312L19.7823 11.3982C19.4886 10.6807 19.1935 9.95972 18.8999 9.23875C18.7177 8.79224 18.5369 8.34505 18.3561 7.89786C18.0232 7.07517 17.6788 6.22517 17.3351 5.39087C17.1236 4.87813 16.9257 4.50331 16.6927 4.1756C16.259 3.56455 15.6924 3.07844 15.0072 2.73093C14.9851 2.71933 14.9615 2.70909 14.9379 2.69816C14.8157 2.6415 14.6635 2.57186 14.5613 2.41346L14.4256 2.2025L14.4306 2.20045C14.2884 2.13354 14.1434 2.07619 14.0033 2.02431C13.6946 1.90961 13.4238 1.83382 13.1773 1.79354C13.1345 1.78671 13.0923 1.7792 13.0494 1.77169C12.8429 1.73619 12.6479 1.70342 12.4521 1.70342C12.3978 1.70342 12.3442 1.70615 12.2942 1.71161C12.1506 1.72663 12.0091 1.72936 11.8719 1.73141C11.7069 1.73414 11.5504 1.73619 11.3953 1.76009C11.3117 1.77306 11.2246 1.79286 11.1331 1.81402C10.9402 1.8584 10.7216 1.90824 10.4608 1.90824C10.4358 1.90824 10.4107 1.90756 10.385 1.90688L9.71552 1.8823L10.4 1.45354C9.7684 1.62149 9.11533 1.93282 8.62303 2.31993C8.30793 2.56776 8.05213 2.81286 7.8485 3.06411C7.95282 2.99993 8.06428 2.94122 8.18718 2.89411L8.42511 3.2225C7.88494 3.78371 7.51625 4.48624 7.29904 5.36902C7.16828 5.90155 7.04682 6.44705 6.92892 6.97412C6.87247 7.22878 6.81531 7.48413 6.75744 7.73879L6.67598 8.09654C6.55309 8.63522 6.42662 9.19233 6.29872 9.7392C6.23584 10.0068 6.17082 10.2745 6.1058 10.5421C6.04507 10.7933 5.98362 11.0439 5.92432 11.2958C5.75355 12.0236 5.58135 12.7658 5.39915 13.5639C5.32984 13.867 5.26339 14.1708 5.19837 14.4692C5.17836 14.5607 5.15836 14.6521 5.13835 14.7429C5.14907 14.7477 5.16122 14.7532 5.17408 14.7593C5.2541 14.7955 5.36414 14.8447 5.44702 14.9573L5.50132 15.0311L4.10802 21.0698L4.25378 20.8978L4.41384 21.1368C4.53816 21.3225 4.49743 21.489 4.47314 21.5887C4.27165 22.4066 4.08159 23.2423 3.89796 24.0507C3.83508 24.3258 3.77292 24.6003 3.71004 24.8754C3.54785 25.5807 3.33278 26.5112 3.10342 27.4534C3.09413 27.4923 3.08913 27.5401 3.08413 27.5906C3.06698 27.7572 3.0434 27.9853 2.81618 28.1518L2.72973 28.2153L2.47108 28.1416L1.98449 30.2151L1.75585 30.1365C1.68797 30.1133 1.63367 30.0812 1.58937 30.0533C1.58865 30.056 1.58794 30.058 1.58794 30.0608C1.51577 30.4158 1.44146 30.7408 1.36001 31.0535C1.2121 31.6229 1.06206 32.3739 1.2171 33.1317C1.2364 33.228 1.26283 33.3229 1.28784 33.415C1.28856 33.415 1.28927 33.415 1.28998 33.415C1.36144 33.415 1.46433 33.4382 1.5465 33.5475L1.57793 33.5885L1.58508 33.639C1.63867 34.0056 1.81015 34.3818 1.97592 34.7457C2.04523 34.8979 2.15955 35.0297 2.2803 35.169C2.36533 35.2673 2.45393 35.369 2.53038 35.4824C2.97123 36.1391 3.50926 36.7161 4.12946 37.1974C4.64177 37.5954 5.22909 37.8712 5.9236 38.0406C5.99219 38.0569 6.0665 38.0672 6.1451 38.0781C6.31587 38.1013 6.50879 38.1286 6.6867 38.231L6.82603 38.3116L6.78173 38.4611C6.77244 38.4925 6.75958 38.5198 6.74529 38.5444C7.01966 38.5799 7.29261 38.5977 7.5727 38.5977C7.75847 38.5977 7.94424 38.5902 8.13216 38.5745C8.08429 38.554 8.0357 38.5328 7.98711 38.511L7.34405 38.2208L8.04785 38.1225C8.92956 37.9996 9.74053 37.6405 10.5201 37.0274C10.4272 36.9516 10.3429 36.8601 10.2578 36.7468L10.1392 36.587L10.3014 36.4669C10.5093 36.3126 10.6723 36.1282 10.8537 35.8988C11.2317 35.4216 11.5047 34.8617 11.6669 34.235C11.749 33.9168 11.8226 33.5891 11.8941 33.2723L11.9512 33.0211C11.9998 32.8081 12.047 32.5944 12.0948 32.3807C12.1556 32.1069 12.2163 31.8331 12.2799 31.5594C12.3199 31.3859 12.3621 31.2132 12.4042 31.0405C12.4628 30.8008 12.5236 30.5523 12.5764 30.3086C12.6286 30.0683 12.7679 29.9597 12.8751 29.9119C12.9673 29.8703 13.0409 29.7986 13.118 29.7221C13.1395 29.701 13.1616 29.6798 13.1838 29.6586L13.2624 29.3255C13.3302 29.0414 13.396 28.7629 13.4603 28.4836C13.5532 28.0795 13.6446 27.6753 13.7361 27.2711L13.8761 26.6532C13.989 26.1583 14.1005 25.7131 14.3256 25.2857L14.3849 25.1731L15.2037 25.1717L16.029 27.1482L15.9554 27.2404C15.9061 27.3025 15.8982 27.3694 15.9889 27.5804C16.1383 27.9279 16.2833 28.2829 16.4227 28.627C16.5527 28.9465 16.687 29.2763 16.8242 29.5986C16.9192 29.8218 16.9314 30.0184 16.8585 30.1973C16.8771 30.2431 16.8921 30.2874 16.9057 30.3277C16.9214 30.3741 16.9378 30.4212 16.9543 30.4561C17.0564 30.4581 17.1415 30.4991 17.2065 30.5783L17.2258 30.6015L17.2372 30.6288C17.3544 30.9094 17.4708 31.1955 17.588 31.4849C17.7659 31.9226 17.9489 32.3732 18.1425 32.8238L18.2447 32.7357L18.3761 32.9576C18.5219 33.2048 18.6105 33.4697 18.6955 33.7257C18.7441 33.8711 18.7906 34.0111 18.8463 34.1469L18.9842 34.0315L19.1028 34.2889C19.1364 34.3634 19.1685 34.4384 19.2014 34.5122C19.345 34.8413 19.4808 35.1526 19.6751 35.438C19.7137 35.4946 19.7673 35.5458 19.8252 35.6011C19.893 35.6667 19.9702 35.7404 20.0338 35.8353C20.2517 36.1589 20.4761 36.4259 20.7212 36.6526C20.952 36.8656 21.2342 37.0649 21.5822 37.2622C21.7858 37.3776 22.0151 37.521 22.1523 37.7613C22.1795 37.8091 22.2252 37.8385 22.311 37.8815C23.0269 38.2399 23.8336 38.3512 24.5988 38.4174C24.6095 38.4181 24.6203 38.4188 24.631 38.4188C24.6939 38.4188 24.7632 38.4038 24.836 38.3874C24.9239 38.3683 25.024 38.3457 25.134 38.3457H25.1754C25.6027 38.3457 26.0036 38.2167 26.4287 38.0795C26.8345 37.9484 27.2175 37.7579 27.5933 37.4985C27.5841 37.4964 27.5755 37.4944 27.5662 37.493C27.3233 37.4555 27.244 37.2902 27.2518 37.1489L27.2568 37.0499L27.3411 36.9926C27.9799 36.5577 28.5922 35.8073 28.8052 35.2263C28.683 35.197 28.5472 35.1355 28.4551 34.9764L28.405 34.8897L28.445 34.7983C28.6337 34.3688 28.7616 33.9059 28.8373 33.3829C28.893 32.9965 28.9888 32.6135 29.0817 32.2428C29.126 32.0666 29.171 31.8843 29.2117 31.7055C29.3553 31.0678 29.5132 30.4226 29.6662 29.7986C29.7848 29.3139 29.9077 28.8134 30.0227 28.3198C30.2149 27.4944 30.4014 26.656 30.5822 25.8449C30.6615 25.4878 30.7408 25.1314 30.8208 24.7771L30.838 24.7013L30.9037 24.6556C31.093 24.5224 31.2817 24.5054 31.4246 24.5054C31.4924 24.5054 31.5618 24.5101 31.6289 24.5142C31.6611 24.5163 31.6939 24.5183 31.7282 24.5204L31.864 24.5272L31.9154 24.6481C32.2834 25.5117 32.6421 26.3972 32.9886 27.2527C33.2337 27.8576 33.4859 28.4796 33.7417 29.0954C33.7446 29.0947 33.9246 29.066 33.9246 29.066L33.9875 29.2231C34.2247 29.8191 34.4762 30.424 34.7192 31.0091C35.0972 31.9185 35.488 32.8579 35.8395 33.7994H35.9774L36.0303 33.9312C36.6977 35.5902 37.7659 36.7249 39.2956 37.4002L39.3649 37.4309L39.3985 37.4964C39.4407 37.5783 39.445 37.6541 39.4485 37.7094C39.4493 37.7163 39.4493 37.7238 39.45 37.7313C39.49 37.7456 39.53 37.7606 39.5707 37.775C39.7372 37.8357 39.9087 37.8979 40.0816 37.9552C40.1502 37.9777 40.2281 37.9921 40.311 38.0071C40.4038 38.0242 40.5003 38.0412 40.5946 38.0733C40.6489 38.0918 40.7218 38.0945 40.799 38.0979C40.9633 38.1047 41.1884 38.1136 41.3634 38.2959L41.382 38.3157L41.3949 38.3389C41.4406 38.4215 41.442 38.5014 41.4435 38.5601C41.4435 38.5683 41.4442 38.5785 41.4442 38.5888C41.6285 38.6018 41.8036 38.6079 41.9758 38.6079C42.4709 38.6079 42.9182 38.5553 43.3434 38.4468L43.5942 38.3826L43.6092 38.6291Z" fill="#14152D"/>
</mask>
<g mask="url(#mask0_2072_1745)">
<rect width="72" height="40" fill="white"/>
</g>
</svg>
