<svg width="24" height="20" viewBox="0 0 24 20" fill="none" xmlns="http://www.w3.org/2000/svg">
<path d="M21.3 5.58005H15.72C15.33 5.58005 15.02 5.27005 15.02 4.88005C15.02 4.49005 15.33 4.18005 15.72 4.18005H21.3C21.69 4.18005 22 4.49005 22 4.88005C22 5.27005 21.69 5.58005 21.3 5.58005Z" fill="white"/>
<path d="M6.42 5.58005H2.7C2.31 5.58005 2 5.27005 2 4.88005C2 4.49005 2.31 4.18005 2.7 4.18005H6.42C6.81 4.18005 7.12 4.49005 7.12 4.88005C7.12 5.27005 6.8 5.58005 6.42 5.58005Z" fill="white"/>
<path d="M10.1399 8.83005C12.3215 8.83005 14.0899 7.06158 14.0899 4.88005C14.0899 2.69853 12.3215 0.930054 10.1399 0.930054C7.95842 0.930054 6.18994 2.69853 6.18994 4.88005C6.18994 7.06158 7.95842 8.83005 10.1399 8.83005Z" fill="white"/>
<path d="M21.2999 15.81H17.5799C17.1899 15.81 16.8799 15.5 16.8799 15.11C16.8799 14.72 17.1899 14.41 17.5799 14.41H21.2999C21.6899 14.41 21.9999 14.72 21.9999 15.11C21.9999 15.5 21.6899 15.81 21.2999 15.81Z" fill="white"/>
<path d="M8.28 15.81H2.7C2.31 15.81 2 15.5 2 15.11C2 14.72 2.31 14.41 2.7 14.41H8.28C8.67 14.41 8.98 14.72 8.98 15.11C8.98 15.5 8.66 15.81 8.28 15.81Z" fill="white"/>
<path d="M13.8599 19.07C16.0414 19.07 17.8099 17.3016 17.8099 15.12C17.8099 12.9385 16.0414 11.17 13.8599 11.17C11.6784 11.17 9.90991 12.9385 9.90991 15.12C9.90991 17.3016 11.6784 19.07 13.8599 19.07Z" fill="white"/>
</svg>
