<svg width="36" height="40" viewBox="0 0 36 40" fill="none" xmlns="http://www.w3.org/2000/svg">
<path d="M31.3898 40C30.8513 40 30.3113 39.8977 29.7965 39.6851L19.0768 36C18.6334 37.0931 18.0155 38.3498 17.2137 39.803L15.6088 38.8994C16.3452 37.565 16.9197 36.3974 17.3309 35.3995L8.39897 32.3291C7.60934 32.0576 6.97325 31.4915 6.60736 30.7345C6.24148 29.9775 6.19061 29.1225 6.46456 28.3268C6.7399 27.5264 7.33213 26.8599 8.08909 26.4984C8.82786 26.1453 9.65063 26.1058 10.4053 26.3867C13.351 27.4826 14.9872 28.1029 17.497 29.105C18.2531 29.4072 19.3087 29.9506 19.7423 31.1771C20.0274 31.9836 20.0143 32.9763 19.6769 34.2447L30.4163 37.9364C30.4359 37.943 30.4555 37.9505 30.4742 37.9585C31.5545 38.4143 32.8515 38.0024 33.628 36.9564C34.0635 36.3696 34.2417 35.6475 34.1302 34.923C34.0187 34.1985 33.6313 33.5655 33.04 33.1403L18.6847 22.8199L2.65826 11.4724C-0.161923 9.47527 -0.847485 5.5333 1.12986 2.68488C3.10721 -0.163544 7.01011 -0.85597 9.8303 1.14118C9.83683 1.14589 9.84337 1.1506 9.84943 1.15532L31.3207 17.2098L30.2278 18.7012L8.76625 2.65424C6.7763 1.25242 4.02799 1.74263 2.634 3.75015C1.23814 5.76049 1.72209 8.5434 3.71251 9.95276L19.7409 21.304C19.7427 21.3054 19.7446 21.3064 19.746 21.3078L34.1045 31.6306C35.1028 32.3484 35.7566 33.417 35.9451 34.6397C36.1337 35.8624 35.8327 37.0813 35.0981 38.0717C34.1778 39.3109 32.788 40 31.3898 40ZM9.38275 28.0595C9.21101 28.0595 9.03833 28.0991 8.87453 28.1769C8.56044 28.3268 8.3145 28.604 8.20016 28.9367C8.08816 29.262 8.10916 29.6117 8.2585 29.9209C8.40831 30.2306 8.66825 30.4621 8.9912 30.5728L17.9329 33.6466C18.1359 32.8452 18.163 32.2292 18.0122 31.8021C17.8676 31.393 17.5227 31.1116 16.8217 30.8316C14.3642 29.8502 12.8381 29.27 9.77056 28.1288C9.64502 28.0826 9.51435 28.0595 9.38275 28.0595Z" fill="white"/>
</svg>
