<svg width="81" height="51" viewBox="0 0 81 51" fill="none" xmlns="http://www.w3.org/2000/svg">
<rect x="39.8099" y="9.80991" width="31.3803" height="31.3803" rx="2.1" stroke="white" stroke-width="1.8"/>
<path d="M49.6191 9.73165L48.7609 10.0027L48.9595 10.6316H49.6191V9.73165ZM61.381 9.73165V10.6316H62.0406L62.2393 10.0027L61.381 9.73165ZM50.2879 6.00001C50.2879 3.73564 52.1236 1.9 54.3879 1.9V0.1C51.1295 0.1 48.4879 2.74153 48.4879 6.00001H50.2879ZM50.2879 8.22432V6.00001H48.4879V8.22432H50.2879ZM50.4774 9.46063C50.3545 9.07163 50.2879 8.65661 50.2879 8.22432H48.4879C48.4879 8.84263 48.5834 9.44036 48.7609 10.0027L50.4774 9.46063ZM49.6191 10.6316H61.381V8.83165H49.6191V10.6316ZM60.7123 8.22431C60.7123 8.6566 60.6457 9.07163 60.5228 9.46063L62.2393 10.0027C62.4168 9.44036 62.5123 8.84263 62.5123 8.22431H60.7123ZM60.7123 6V8.22431H62.5123V6H60.7123ZM56.6123 1.9C58.8766 1.9 60.7123 3.73563 60.7123 6H62.5123C62.5123 2.74152 59.8707 0.1 56.6123 0.1V1.9ZM54.3879 1.9H56.6123V0.1H54.3879V1.9Z" fill="white"/>
<path d="M75 19.3879L75 20.2879L75 19.3879ZM80 24.3879L79.1 24.3879L80 24.3879ZM72.7757 19.3879L72.7757 18.4879L72.7757 19.3879ZM71.2683 19.6192L70.9973 18.7609L70.3683 18.9596L70.3683 19.6192L71.2683 19.6192ZM71.2683 31.381L70.3683 31.381L70.3683 32.0406L70.9973 32.2392L71.2683 31.381ZM80 26.6123L80.9 26.6123L80 26.6123ZM75 20.2879C77.2644 20.2879 79.1 22.1236 79.1 24.3879L80.9 24.3879C80.9 21.1295 78.2585 18.4879 75 18.4879L75 20.2879ZM72.7757 20.2879L75 20.2879L75 18.4879L72.7757 18.4879L72.7757 20.2879ZM71.5393 20.4774C71.9283 20.3545 72.3434 20.2879 72.7757 20.2879L72.7757 18.4879C72.1573 18.4879 71.5596 18.5834 70.9973 18.7609L71.5393 20.4774ZM70.3683 19.6192L70.3683 31.381L72.1683 31.381L72.1683 19.6192L70.3683 19.6192ZM72.7757 30.7123C72.3434 30.7123 71.9283 30.6457 71.5393 30.5228L70.9973 32.2392C71.5596 32.4168 72.1573 32.5123 72.7757 32.5123L72.7757 30.7123ZM75 30.7123L72.7757 30.7123L72.7757 32.5123L75 32.5123L75 30.7123ZM79.1 26.6123C79.1 28.8766 77.2644 30.7123 75 30.7123L75 32.5123C78.2585 32.5123 80.9 29.8707 80.9 26.6123L79.1 26.6123ZM79.1 24.3879L79.1 26.6123L80.9 26.6123L80.9 24.3879L79.1 24.3879Z" fill="white"/>
<path d="M61.6121 45L60.7121 45L61.6121 45ZM56.6121 50L56.6121 49.1L56.6121 50ZM61.6121 42.7757L62.5121 42.7757L61.6121 42.7757ZM61.3808 41.2683L62.2391 40.9973L62.0404 40.3683L61.3808 40.3683L61.3808 41.2683ZM49.619 41.2683L49.619 40.3683L48.9594 40.3683L48.7607 40.9973L49.619 41.2683ZM54.3877 50L54.3877 50.9L54.3877 50ZM60.7121 45C60.7121 47.2644 58.8764 49.1 56.6121 49.1L56.6121 50.9C59.8705 50.9 62.5121 48.2585 62.5121 45L60.7121 45ZM60.7121 42.7757L60.7121 45L62.5121 45L62.5121 42.7757L60.7121 42.7757ZM60.5226 41.5394C60.6455 41.9284 60.7121 42.3434 60.7121 42.7757L62.5121 42.7757C62.5121 42.1574 62.4166 41.5596 62.2391 40.9973L60.5226 41.5394ZM61.3808 40.3683L49.619 40.3683L49.619 42.1683L61.3808 42.1683L61.3808 40.3683ZM50.2877 42.7757C50.2877 42.3434 50.3543 41.9284 50.4772 41.5394L48.7607 40.9973C48.5832 41.5596 48.4877 42.1574 48.4877 42.7757L50.2877 42.7757ZM50.2877 45L50.2877 42.7757L48.4877 42.7757L48.4877 45L50.2877 45ZM54.3877 49.1C52.1234 49.1 50.2877 47.2644 50.2877 45L48.4877 45C48.4877 48.2585 51.1293 50.9 54.3877 50.9L54.3877 49.1ZM56.6121 49.1L54.3877 49.1L54.3877 50.9L56.6121 50.9L56.6121 49.1Z" fill="white"/>
<path d="M31 26.6121L30.1 26.6121L31 26.6121ZM39.7317 31.3808L40.0027 32.2391L40.6317 32.0404L40.6317 31.3808L39.7317 31.3808ZM39.7317 19.619L40.6317 19.619L40.6317 18.9594L40.0027 18.7608L39.7317 19.619ZM31 24.3877L31.9 24.3877L31 24.3877ZM36 30.7121C33.7356 30.7121 31.9 28.8764 31.9 26.6121L30.1 26.6121C30.1 29.8705 32.7415 32.5121 36 32.5121L36 30.7121ZM38.2243 30.7121L36 30.7121L36 32.5121L38.2243 32.5121L38.2243 30.7121ZM39.4607 30.5226C39.0717 30.6455 38.6566 30.7121 38.2243 30.7121L38.2243 32.5121C38.8427 32.5121 39.4404 32.4166 40.0027 32.2391L39.4607 30.5226ZM40.6317 31.3808L40.6317 19.619L38.8317 19.619L38.8317 31.3808L40.6317 31.3808ZM38.2243 20.2877C38.6566 20.2877 39.0717 20.3543 39.4607 20.4772L40.0027 18.7608C39.4404 18.5832 38.8427 18.4877 38.2243 18.4877L38.2243 20.2877ZM36 20.2877L38.2243 20.2877L38.2243 18.4877L36 18.4877L36 20.2877ZM31.9 24.3877C31.9 22.1234 33.7356 20.2877 36 20.2877L36 18.4877C32.7415 18.4877 30.1 21.1293 30.1 24.3877L31.9 24.3877ZM31.9 26.6121L31.9 24.3877L30.1 24.3877L30.1 26.6121L31.9 26.6121Z" fill="white"/>
</svg>
